<mxfile host="app.diagrams.net" modified="2024-07-09T16:51:45.051Z" agent="Mozilla/5.0 (Macintosh; Intel Mac OS X 10.15; rv:122.0) Gecko/20100101 Firefox/122.0" version="24.2.5" etag="VB4MX_hcKBBCVte2fn4N" type="github">
  <diagram name="PÃ¡gina-1" id="s1PY-qFK5okIJEl-0Nl8">
    <mxGraphModel>
      <root>
        <mxCell id="0" />
        <mxCell id="1" parent="0" />
      </root>
    </mxGraphModel>
  </diagram>
</mxfile>
